{
  "accessors": [
    {
      "bufferView": 2,
      "componentType": 5126,
      "count": 65532,
      "max": [
        0.1002655029296875,
        -0.10335540771484375,
        -0.272674560546875
      ],
      "min": [
        -0.2852783203125,
        -0.419281005859375,
        -0.4888916015625
      ],
      "type": "VEC3"
    },
    {
      "bufferView": 2,
      "byteOffset": 786384,
      "componentType": 5126,
      "count": 65532,
      "max": [
        0.9999688863754272,
        0.9999688863754272,
        0.9996903538703918
      ],
      "min": [
        -0.9999688863754272,
        -1.0,
        -1.0
      ],
      "type": "VEC3"
    },
    {
      "bufferView": 3,
      "componentType": 5126,
      "count": 65532,
      "max": [
        0.9999688267707825,
        0.9999769330024719,
        1.0,
        1.0
      ],
      "min": [
        -1.0,
        -0.999967634677887,
        -1.0,
        -1.0
      ],
      "type": "VEC4"
    },
    {
      "bufferView": 1,
      "componentType": 5126,
      "count": 65532,
      "max": [
        0.994873046875,
        0.9794921875
      ],
      "min": [
        0.021240234375,
        0.00146484375
      ],
      "type": "VEC2"
    },
    {
      "bufferView": 1,
      "byteOffset": 524256,
      "componentType": 5126,
      "count": 65532,
      "max": [
        0.994873046875,
        0.9794921875
      ],
      "min": [
        0.021240234375,
        0.00146484375
      ],
      "type": "VEC2"
    },
    {
      "bufferView": 1,
      "byteOffset": 1048512,
      "componentType": 5126,
      "count": 65532,
      "max": [
        0.994873046875,
        0.9794921875
      ],
      "min": [
        0.021240234375,
        0.00146484375
      ],
      "type": "VEC2"
    },
    {
      "bufferView": 1,
      "byteOffset": 1572768,
      "componentType": 5126,
      "count": 65532,
      "max": [
        0.994873046875,
        0.9794921875
      ],
      "min": [
        0.021240234375,
        0.00146484375
      ],
      "type": "VEC2"
    },
    {
      "bufferView": 0,
      "componentType": 5125,
      "count": 345912,
      "type": "SCALAR"
    },
    {
      "bufferView": 2,
      "byteOffset": 1572768,
      "componentType": 5126,
      "count": 65532,
      "max": [
        0.1481170654296875,
        -0.10791015625,
        -0.09636688232421875
      ],
      "min": [
        -0.28607177734375,
        -0.421173095703125,
        -0.481781005859375
      ],
      "type": "VEC3"
    },
    {
      "bufferView": 2,
      "byteOffset": 2359152,
      "componentType": 5126,
      "count": 65532,
      "max": [
        1.0,
        0.9999688863754272,
        0.9997519850730896
      ],
      "min": [
        -0.9999688863754272,
        -1.0,
        -0.9999688863754272
      ],
      "type": "VEC3"
    },
    {
      "bufferView": 3,
      "byteOffset": 1048512,
      "componentType": 5126,
      "count": 65532,
      "max": [
        0.9999688863754272,
        1.0,
        1.0,
        1.0
      ],
      "min": [
        -0.9999558925628662,
        -0.9999998211860657,
        -1.0,
        -1.0
      ],
      "type": "VEC4"
    },
    {
      "bufferView": 1,
      "byteOffset": 2097024,
      "componentType": 5126,
      "count": 65532,
      "max": [
        0.994140625,
        0.990966796875
      ],
      "min": [
        0.0009765625,
        0.0009765625
      ],
      "type": "VEC2"
    },
    {
      "bufferView": 1,
      "byteOffset": 2621280,
      "componentType": 5126,
      "count": 65532,
      "max": [
        0.994140625,
        0.990966796875
      ],
      "min": [
        0.0009765625,
        0.0009765625
      ],
      "type": "VEC2"
    },
    {
      "bufferView": 1,
      "byteOffset": 3145536,
      "componentType": 5126,
      "count": 65532,
      "max": [
        0.994140625,
        0.990966796875
      ],
      "min": [
        0.0009765625,
        0.0009765625
      ],
      "type": "VEC2"
    },
    {
      "bufferView": 1,
      "byteOffset": 3669792,
      "componentType": 5126,
      "count": 65532,
      "max": [
        0.994140625,
        0.990966796875
      ],
      "min": [
        0.0009765625,
        0.0009765625
      ],
      "type": "VEC2"
    },
    {
      "bufferView": 0,
      "byteOffset": 1383648,
      "componentType": 5125,
      "count": 319776,
      "type": "SCALAR"
    },
    {
      "bufferView": 2,
      "byteOffset": 3145536,
      "componentType": 5126,
      "count": 65532,
      "max": [
        0.1810760498046875,
        -0.08769989013671875,
        -0.090545654296875
      ],
      "min": [
        -0.279022216796875,
        -0.419189453125,
        -0.474456787109375
      ],
      "type": "VEC3"
    },
    {
      "bufferView": 2,
      "byteOffset": 3931920,
      "componentType": 5126,
      "count": 65532,
      "max": [
        0.9999688863754272,
        0.9999375939369202,
        0.9990103840827942
      ],
      "min": [
        -1.0,
        -1.0,
        -0.9999688863754272
      ],
      "type": "VEC3"
    },
    {
      "bufferView": 3,
      "byteOffset": 2097024,
      "componentType": 5126,
      "count": 65532,
      "max": [
        0.9999992847442627,
        0.9999936819076538,
        1.0,
        1.0
      ],
      "min": [
        -1.0,
        -1.0,
        -0.9999909400939941,
        -1.0
      ],
      "type": "VEC4"
    },
    {
      "bufferView": 1,
      "byteOffset": 4194048,
      "componentType": 5126,
      "count": 65532,
      "max": [
        1.0,
        0.998046875
      ],
      "min": [
        0.008056640625,
        0.001220703125
      ],
      "type": "VEC2"
    },
    {
      "bufferView": 1,
      "byteOffset": 4718304,
      "componentType": 5126,
      "count": 65532,
      "max": [
        1.0,
        0.998046875
      ],
      "min": [
        0.008056640625,
        0.001220703125
      ],
      "type": "VEC2"
    },
    {
      "bufferView": 1,
      "byteOffset": 5242560,
      "componentType": 5126,
      "count": 65532,
      "max": [
        1.0,
        0.998046875
      ],
      "min": [
        0.008056640625,
        0.001220703125
      ],
      "type": "VEC2"
    },
    {
      "bufferView": 1,
      "byteOffset": 5766816,
      "componentType": 5126,
      "count": 65532,
      "max": [
        1.0,
        0.998046875
      ],
      "min": [
        0.008056640625,
        0.001220703125
      ],
      "type": "VEC2"
    },
    {
      "bufferView": 0,
      "byteOffset": 2662752,
      "componentType": 5125,
      "count": 332898,
      "type": "SCALAR"
    },
    {
      "bufferView": 2,
      "byteOffset": 4718304,
      "componentType": 5126,
      "count": 65532,
      "max": [
        0.2159881591796875,
        0.32421875,
        -0.03322601318359375
      ],
      "min": [
        -0.275543212890625,
        -0.4197998046875,
        -0.380889892578125
      ],
      "type": "VEC3"
    },
    {
      "bufferView": 2,
      "byteOffset": 5504688,
      "componentType": 5126,
      "count": 65532,
      "max": [
        0.9999688863754272,
        0.9999696016311646,
        0.9983887672424316
      ],
      "min": [
        -0.9999688863754272,
        -1.0,
        -0.9999688863754272
      ],
      "type": "VEC3"
    },
    {
      "bufferView": 3,
      "byteOffset": 3145536,
      "componentType": 5126,
      "count": 65532,
      "max": [
        1.0,
        1.0,
        0.9999688267707825,
        1.0
      ],
      "min": [
        -0.9999984502792358,
        -1.0,
        -0.9999962449073792,
        -1.0
      ],
      "type": "VEC4"
    },
    {
      "bufferView": 1,
      "byteOffset": 6291072,
      "componentType": 5126,
      "count": 65532,
      "max": [
        0.999755859375,
        0.9990234375
      ],
      "min": [
        0.0,
        0.00146484375
      ],
      "type": "VEC2"
    },
    {
      "bufferView": 1,
      "byteOffset": 6815328,
      "componentType": 5126,
      "count": 65532,
      "max": [
        0.999755859375,
        0.9990234375
      ],
      "min": [
        0.0,
        0.00146484375
      ],
      "type": "VEC2"
    },
    {
      "bufferView": 1,
      "byteOffset": 7339584,
      "componentType": 5126,
      "count": 65532,
      "max": [
        0.999755859375,
        0.9990234375
      ],
      "min": [
        0.0,
        0.00146484375
      ],
      "type": "VEC2"
    },
    {
      "bufferView": 1,
      "byteOffset": 7863840,
      "componentType": 5126,
      "count": 65532,
      "max": [
        0.999755859375,
        0.9990234375
      ],
      "min": [
        0.0,
        0.00146484375
      ],
      "type": "VEC2"
    },
    {
      "bufferView": 0,
      "byteOffset": 3994344,
      "componentType": 5125,
      "count": 329124,
      "type": "SCALAR"
    },
    {
      "bufferView": 2,
      "byteOffset": 6291072,
      "componentType": 5126,
      "count": 65532,
      "max": [
        0.25860595703125,
        0.410980224609375,
        0.015142440795898438
      ],
      "min": [
        -0.27130126953125,
        -0.418182373046875,
        -0.252532958984375
      ],
      "type": "VEC3"
    },
    {
      "bufferView": 2,
      "byteOffset": 7077456,
      "componentType": 5126,
      "count": 65532,
      "max": [
        0.9999375939369202,
        0.999845564365387,
        0.9986066222190857
      ],
      "min": [
        -1.0,
        -1.0,
        -1.0
      ],
      "type": "VEC3"
    },
    {
      "bufferView": 3,
      "byteOffset": 4194048,
      "componentType": 5126,
      "count": 65532,
      "max": [
        0.9999683499336243,
        0.9999696016311646,
        1.0,
        1.0
      ],
      "min": [
        -1.0,
        -0.9999747276306152,
        -0.9998732805252075,
        -1.0
      ],
      "type": "VEC4"
    },
    {
      "bufferView": 1,
      "byteOffset": 8388096,
      "componentType": 5126,
      "count": 65532,
      "max": [
        0.994140625,
        0.9990234375
      ],
      "min": [
        0.009033203125,
        0.005126953125
      ],
      "type": "VEC2"
    },
    {
      "bufferView": 1,
      "byteOffset": 8912352,
      "componentType": 5126,
      "count": 65532,
      "max": [
        0.994140625,
        0.9990234375
      ],
      "min": [
        0.009033203125,
        0.005126953125
      ],
      "type": "VEC2"
    },
    {
      "bufferView": 1,
      "byteOffset": 9436608,
      "componentType": 5126,
      "count": 65532,
      "max": [
        0.994140625,
        0.9990234375
      ],
      "min": [
        0.009033203125,
        0.005126953125
      ],
      "type": "VEC2"
    },
    {
      "bufferView": 1,
      "byteOffset": 9960864,
      "componentType": 5126,
      "count": 65532,
      "max": [
        0.994140625,
        0.9990234375
      ],
      "min": [
        0.009033203125,
        0.005126953125
      ],
      "type": "VEC2"
    },
    {
      "bufferView": 0,
      "byteOffset": 5310840,
      "componentType": 5125,
      "count": 325017,
      "type": "SCALAR"
    },
    {
      "bufferView": 2,
      "byteOffset": 7863840,
      "componentType": 5126,
      "count": 65532,
      "max": [
        0.261505126953125,
        0.412567138671875,
        0.04327392578125
      ],
      "min": [
        -0.266937255859375,
        -0.419708251953125,
        -0.233856201171875
      ],
      "type": "VEC3"
    },
    {
      "bufferView": 2,
      "byteOffset": 8650224,
      "componentType": 5126,
      "count": 65532,
      "max": [
        0.9999375939369202,
        0.9999375939369202,
        0.9997535347938538
      ],
      "min": [
        -1.0,
        -1.0,
        -0.9999688863754272
      ],
      "type": "VEC3"
    },
    {
      "bufferView": 3,
      "byteOffset": 5242560,
      "componentType": 5126,
      "count": 65532,
      "max": [
        0.9999597072601318,
        0.9999958276748657,
        0.9999688267707825,
        1.0
      ],
      "min": [
        -1.0,
        -0.9999669194221497,
        -1.0,
        -1.0
      ],
      "type": "VEC4"
    },
    {
      "bufferView": 1,
      "byteOffset": 10485120,
      "componentType": 5126,
      "count": 65532,
      "max": [
        0.99609375,
        0.9990234375
      ],
      "min": [
        0.0,
        0.001220703125
      ],
      "type": "VEC2"
    },
    {
      "bufferView": 1,
      "byteOffset": 11009376,
      "componentType": 5126,
      "count": 65532,
      "max": [
        0.99609375,
        0.9990234375
      ],
      "min": [
        0.0,
        0.001220703125
      ],
      "type": "VEC2"
    },
    {
      "bufferView": 1,
      "byteOffset": 11533632,
      "componentType": 5126,
      "count": 65532,
      "max": [
        0.99609375,
        0.9990234375
      ],
      "min": [
        0.0,
        0.001220703125
      ],
      "type": "VEC2"
    },
    {
      "bufferView": 1,
      "byteOffset": 12057888,
      "componentType": 5126,
      "count": 65532,
      "max": [
        0.99609375,
        0.9990234375
      ],
      "min": [
        0.0,
        0.001220703125
      ],
      "type": "VEC2"
    },
    {
      "bufferView": 0,
      "byteOffset": 6610908,
      "componentType": 5125,
      "count": 313437,
      "type": "SCALAR"
    },
    {
      "bufferView": 2,
      "byteOffset": 9436608,
      "componentType": 5126,
      "count": 65532,
      "max": [
        0.260894775390625,
        0.41253662109375,
        -0.0041046142578125
      ],
      "min": [
        -0.269805908203125,
        -0.42041015625,
        -0.254180908203125
      ],
      "type": "VEC3"
    },
    {
      "bufferView": 2,
      "byteOffset": 10222992,
      "componentType": 5126,
      "count": 65532,
      "max": [
        1.0,
        0.9999375939369202,
        0.9995037913322449
      ],
      "min": [
        -0.9999688863754272,
        -1.0,
        -1.0
      ],
      "type": "VEC3"
    },
    {
      "bufferView": 3,
      "byteOffset": 6291072,
      "componentType": 5126,
      "count": 65532,
      "max": [
        0.999955415725708,
        0.9999688863754272,
        0.9999457597732544,
        1.0
      ],
      "min": [
        -0.9999912977218628,
        -0.9999727606773376,
        -0.9999374151229858,
        -1.0
      ],
      "type": "VEC4"
    },
    {
      "bufferView": 1,
      "byteOffset": 12582144,
      "componentType": 5126,
      "count": 65532,
      "max": [
        0.9970703125,
        0.998779296875
      ],
      "min": [
        0.0,
        0.00439453125
      ],
      "type": "VEC2"
    },
    {
      "bufferView": 1,
      "byteOffset": 13106400,
      "componentType": 5126,
      "count": 65532,
      "max": [
        0.9970703125,
        0.998779296875
      ],
      "min": [
        0.0,
        0.00439453125
      ],
      "type": "VEC2"
    },
    {
      "bufferView": 1,
      "byteOffset": 13630656,
      "componentType": 5126,
      "count": 65532,
      "max": [
        0.9970703125,
        0.998779296875
      ],
      "min": [
        0.0,
        0.00439453125
      ],
      "type": "VEC2"
    },
    {
      "bufferView": 1,
      "byteOffset": 14154912,
      "componentType": 5126,
      "count": 65532,
      "max": [
        0.9970703125,
        0.998779296875
      ],
      "min": [
        0.0,
        0.00439453125
      ],
      "type": "VEC2"
    },
    {
      "bufferView": 0,
      "byteOffset": 7864656,
      "componentType": 5125,
      "count": 314604,
      "type": "SCALAR"
    },
    {
      "bufferView": 2,
      "byteOffset": 11009376,
      "componentType": 5126,
      "count": 65532,
      "max": [
        0.2772216796875,
        0.408782958984375,
        0.12009429931640625
      ],
      "min": [
        -0.2681884765625,
        -0.418304443359375,
        -0.1799774169921875
      ],
      "type": "VEC3"
    },
    {
      "bufferView": 2,
      "byteOffset": 11795760,
      "componentType": 5126,
      "count": 65532,
      "max": [
        0.9999688863754272,
        1.0,
        0.9991041421890259
      ],
      "min": [
        -0.9999688863754272,
        -1.0,
        -0.9999688863754272
      ],
      "type": "VEC3"
    },
    {
      "bufferView": 3,
      "byteOffset": 7339584,
      "componentType": 5126,
      "count": 65532,
      "max": [
        0.9999688863754272,
        0.9999687671661377,
        0.9999983906745911,
        1.0
      ],
      "min": [
        -0.9998303651809692,
        -0.9999780058860779,
        -1.0,
        -1.0
      ],
      "type": "VEC4"
    },
    {
      "bufferView": 1,
      "byteOffset": 14679168,
      "componentType": 5126,
      "count": 65532,
      "max": [
        0.9892578125,
        0.997802734375
      ],
      "min": [
        0.001220703125,
        0.004150390625
      ],
      "type": "VEC2"
    },
    {
      "bufferView": 1,
      "byteOffset": 15203424,
      "componentType": 5126,
      "count": 65532,
      "max": [
        0.9892578125,
        0.997802734375
      ],
      "min": [
        0.001220703125,
        0.004150390625
      ],
      "type": "VEC2"
    },
    {
      "bufferView": 1,
      "byteOffset": 15727680,
      "componentType": 5126,
      "count": 65532,
      "max": [
        0.9892578125,
        0.997802734375
      ],
      "min": [
        0.001220703125,
        0.004150390625
      ],
      "type": "VEC2"
    },
    {
      "bufferView": 1,
      "byteOffset": 16251936,
      "componentType": 5126,
      "count": 65532,
      "max": [
        0.9892578125,
        0.997802734375
      ],
      "min": [
        0.001220703125,
        0.004150390625
      ],
      "type": "VEC2"
    },
    {
      "bufferView": 0,
      "byteOffset": 9123072,
      "componentType": 5125,
      "count": 309180,
      "type": "SCALAR"
    },
    {
      "bufferView": 2,
      "byteOffset": 12582144,
      "componentType": 5126,
      "count": 65532,
      "max": [
        0.285125732421875,
        0.39971923828125,
        0.1039276123046875
      ],
      "min": [
        -0.266204833984375,
        -0.41815185546875,
        -0.2358245849609375
      ],
      "type": "VEC3"
    },
    {
      "bufferView": 2,
      "byteOffset": 13368528,
      "componentType": 5126,
      "count": 65532,
      "max": [
        0.9999688863754272,
        0.9999375939369202,
        0.9999375939369202
      ],
      "min": [
        -1.0,
        -1.0,
        -1.0
      ],
      "type": "VEC3"
    },
    {
      "bufferView": 3,
      "byteOffset": 8388096,
      "componentType": 5126,
      "count": 65532,
      "max": [
        0.9999254941940308,
        1.0,
        0.9999847412109375,
        1.0
      ],
      "min": [
        -1.0,
        -0.9999699592590332,
        -1.0,
        -1.0
      ],
      "type": "VEC4"
    },
    {
      "bufferView": 1,
      "byteOffset": 16776192,
      "componentType": 5126,
      "count": 65532,
      "max": [
        0.987060546875,
        0.998779296875
      ],
      "min": [
        0.00146484375,
        0.02001953125
      ],
      "type": "VEC2"
    },
    {
      "bufferView": 1,
      "byteOffset": 17300448,
      "componentType": 5126,
      "count": 65532,
      "max": [
        0.987060546875,
        0.998779296875
      ],
      "min": [
        0.00146484375,
        0.02001953125
      ],
      "type": "VEC2"
    },
    {
      "bufferView": 1,
      "byteOffset": 17824704,
      "componentType": 5126,
      "count": 65532,
      "max": [
        0.987060546875,
        0.998779296875
      ],
      "min": [
        0.00146484375,
        0.02001953125
      ],
      "type": "VEC2"
    },
    {
      "bufferView": 1,
      "byteOffset": 18348960,
      "componentType": 5126,
      "count": 65532,
      "max": [
        0.987060546875,
        0.998779296875
      ],
      "min": [
        0.00146484375,
        0.02001953125
      ],
      "type": "VEC2"
    },
    {
      "bufferView": 0,
      "byteOffset": 10359792,
      "componentType": 5125,
      "count": 304476,
      "type": "SCALAR"
    },
    {
      "bufferView": 2,
      "byteOffset": 14154912,
      "componentType": 5126,
      "count": 65532,
      "max": [
        0.286651611328125,
        0.397796630859375,
        0.2273101806640625
      ],
      "min": [
        -0.275543212890625,
        -0.41827392578125,
        -0.1519775390625
      ],
      "type": "VEC3"
    },
    {
      "bufferView": 2,
      "byteOffset": 14941296,
      "componentType": 5126,
      "count": 65532,
      "max": [
        0.9999688863754272,
        1.0,
        0.9999688863754272
      ],
      "min": [
        -0.9999688863754272,
        -1.0,
        -1.0
      ],
      "type": "VEC3"
    },
    {
      "bufferView": 3,
      "byteOffset": 9436608,
      "componentType": 5126,
      "count": 65532,
      "max": [
        0.9999986886978149,
        0.9999623894691467,
        0.9999971985816956,
        1.0
      ],
      "min": [
        -0.9998857975006104,
        -0.9999924898147583,
        -1.0,
        -1.0
      ],
      "type": "VEC4"
    },
    {
      "bufferView": 1,
      "byteOffset": 18873216,
      "componentType": 5126,
      "count": 65532,
      "max": [
        0.986083984375,
        0.995849609375
      ],
      "min": [
        0.010986328125,
        0.0
      ],
      "type": "VEC2"
    },
    {
      "bufferView": 1,
      "byteOffset": 19397472,
      "componentType": 5126,
      "count": 65532,
      "max": [
        0.986083984375,
        0.995849609375
      ],
      "min": [
        0.010986328125,
        0.0
      ],
      "type": "VEC2"
    },
    {
      "bufferView": 1,
      "byteOffset": 19921728,
      "componentType": 5126,
      "count": 65532,
      "max": [
        0.986083984375,
        0.995849609375
      ],
      "min": [
        0.010986328125,
        0.0
      ],
      "type": "VEC2"
    },
    {
      "bufferView": 1,
      "byteOffset": 20445984,
      "componentType": 5126,
      "count": 65532,
      "max": [
        0.986083984375,
        0.995849609375
      ],
      "min": [
        0.010986328125,
        0.0
      ],
      "type": "VEC2"
    },
    {
      "bufferView": 0,
      "byteOffset": 11577696,
      "componentType": 5125,
      "count": 310920,
      "type": "SCALAR"
    },
    {
      "bufferView": 2,
      "byteOffset": 15727680,
      "componentType": 5126,
      "count": 65532,
      "max": [
        0.258819580078125,
        0.383880615234375,
        0.285247802734375
      ],
      "min": [
        -0.2728271484375,
        -0.42047119140625,
        -0.006535530090332031
      ],
      "type": "VEC3"
    },
    {
      "bufferView": 2,
      "byteOffset": 16514064,
      "componentType": 5126,
      "count": 65532,
      "max": [
        1.0,
        0.9999375939369202,
        1.0
      ],
      "min": [
        -1.0,
        -1.0,
        -0.9994725584983826
      ],
      "type": "VEC3"
    },
    {
      "bufferView": 3,
      "byteOffset": 10485120,
      "componentType": 5126,
      "count": 65532,
      "max": [
        1.0,
        1.0,
        0.9999971985816956,
        1.0
      ],
      "min": [
        -0.9999464750289917,
        -0.9999682903289795,
        -1.0,
        -1.0
      ],
      "type": "VEC4"
    },
    {
      "bufferView": 1,
      "byteOffset": 20970240,
      "componentType": 5126,
      "count": 65532,
      "max": [
        0.985107421875,
        0.999755859375
      ],
      "min": [
        0.0029296875,
        0.001220703125
      ],
      "type": "VEC2"
    },
    {
      "bufferView": 1,
      "byteOffset": 21494496,
      "componentType": 5126,
      "count": 65532,
      "max": [
        0.985107421875,
        0.999755859375
      ],
      "min": [
        0.0029296875,
        0.001220703125
      ],
      "type": "VEC2"
    },
    {
      "bufferView": 1,
      "byteOffset": 22018752,
      "componentType": 5126,
      "count": 65532,
      "max": [
        0.985107421875,
        0.999755859375
      ],
      "min": [
        0.0029296875,
        0.001220703125
      ],
      "type": "VEC2"
    },
    {
      "bufferView": 1,
      "byteOffset": 22543008,
      "componentType": 5126,
      "count": 65532,
      "max": [
        0.985107421875,
        0.999755859375
      ],
      "min": [
        0.0029296875,
        0.001220703125
      ],
      "type": "VEC2"
    },
    {
      "bufferView": 0,
      "byteOffset": 12821376,
      "componentType": 5125,
      "count": 341160,
      "type": "SCALAR"
    },
    {
      "bufferView": 2,
      "byteOffset": 17300448,
      "componentType": 5126,
      "count": 65532,
      "max": [
        0.2206268310546875,
        0.189605712890625,
        0.382720947265625
      ],
      "min": [
        -0.275115966796875,
        -0.419708251953125,
        -0.026327133178710938
      ],
      "type": "VEC3"
    },
    {
      "bufferView": 2,
      "byteOffset": 18086832,
      "componentType": 5126,
      "count": 65532,
      "max": [
        1.0,
        1.0,
        0.9999696016311646
      ],
      "min": [
        -1.0,
        -1.0,
        -0.9987338781356812
      ],
      "type": "VEC3"
    },
    {
      "bufferView": 3,
      "byteOffset": 11533632,
      "componentType": 5126,
      "count": 65532,
      "max": [
        0.9999999403953552,
        0.999993085861206,
        1.0,
        1.0
      ],
      "min": [
        -0.9999693036079407,
        -0.9999638795852661,
        -1.0,
        -1.0
      ],
      "type": "VEC4"
    },
    {
      "bufferView": 1,
      "byteOffset": 23067264,
      "componentType": 5126,
      "count": 65532,
      "max": [
        0.996826171875,
        1.0
      ],
      "min": [
        0.0009765625,
        0.0009765625
      ],
      "type": "VEC2"
    },
    {
      "bufferView": 1,
      "byteOffset": 23591520,
      "componentType": 5126,
      "count": 65532,
      "max": [
        0.996826171875,
        1.0
      ],
      "min": [
        0.0009765625,
        0.0009765625
      ],
      "type": "VEC2"
    },
    {
      "bufferView": 1,
      "byteOffset": 24115776,
      "componentType": 5126,
      "count": 65532,
      "max": [
        0.996826171875,
        1.0
      ],
      "min": [
        0.0009765625,
        0.0009765625
      ],
      "type": "VEC2"
    },
    {
      "bufferView": 1,
      "byteOffset": 24640032,
      "componentType": 5126,
      "count": 65532,
      "max": [
        0.996826171875,
        1.0
      ],
      "min": [
        0.0009765625,
        0.0009765625
      ],
      "type": "VEC2"
    },
    {
      "bufferView": 0,
      "byteOffset": 14186016,
      "componentType": 5125,
      "count": 325242,
      "type": "SCALAR"
    },
    {
      "bufferView": 2,
      "byteOffset": 18873216,
      "componentType": 5126,
      "count": 65532,
      "max": [
        0.1940460205078125,
        -0.08283233642578125,
        0.477813720703125
      ],
      "min": [
        -0.278045654296875,
        -0.418701171875,
        -0.0387725830078125
      ],
      "type": "VEC3"
    },
    {
      "bufferView": 2,
      "byteOffset": 19659600,
      "componentType": 5126,
      "count": 65532,
      "max": [
        1.0,
        0.9999688863754272,
        0.9999688863754272
      ],
      "min": [
        -0.9999696016311646,
        -1.0,
        -0.999845564365387
      ],
      "type": "VEC3"
    },
    {
      "bufferView": 3,
      "byteOffset": 12582144,
      "componentType": 5126,
      "count": 65532,
      "max": [
        1.0,
        0.9999687671661377,
        1.0,
        1.0
      ],
      "min": [
        -0.9999997615814209,
        -0.9999969601631165,
        -1.0,
        -1.0
      ],
      "type": "VEC4"
    },
    {
      "bufferView": 1,
      "byteOffset": 25164288,
      "componentType": 5126,
      "count": 65532,
      "max": [
        0.99072265625,
        0.998779296875
      ],
      "min": [
        0.00927734375,
        0.0
      ],
      "type": "VEC2"
    },
    {
      "bufferView": 1,
      "byteOffset": 25688544,
      "componentType": 5126,
      "count": 65532,
      "max": [
        0.99072265625,
        0.998779296875
      ],
      "min": [
        0.00927734375,
        0.0
      ],
      "type": "VEC2"
    },
    {
      "bufferView": 1,
      "byteOffset": 26212800,
      "componentType": 5126,
      "count": 65532,
      "max": [
        0.99072265625,
        0.998779296875
      ],
      "min": [
        0.00927734375,
        0.0
      ],
      "type": "VEC2"
    },
    {
      "bufferView": 1,
      "byteOffset": 26737056,
      "componentType": 5126,
      "count": 65532,
      "max": [
        0.99072265625,
        0.998779296875
      ],
      "min": [
        0.00927734375,
        0.0
      ],
      "type": "VEC2"
    },
    {
      "bufferView": 0,
      "byteOffset": 15486984,
      "componentType": 5125,
      "count": 324489,
      "type": "SCALAR"
    },
    {
      "bufferView": 2,
      "byteOffset": 20445984,
      "componentType": 5126,
      "count": 65532,
      "max": [
        0.08547210693359375,
        -0.1009674072265625,
        0.488922119140625
      ],
      "min": [
        -0.27325439453125,
        -0.419891357421875,
        0.288726806640625
      ],
      "type": "VEC3"
    },
    {
      "bufferView": 2,
      "byteOffset": 21232368,
      "componentType": 5126,
      "count": 65532,
      "max": [
        1.0,
        0.999876856803894,
        0.9999688863754272
      ],
      "min": [
        -0.9999688863754272,
        -1.0,
        -0.9994428753852844
      ],
      "type": "VEC3"
    },
    {
      "bufferView": 3,
      "byteOffset": 13630656,
      "componentType": 5126,
      "count": 65532,
      "max": [
        1.0,
        0.9999860525131226,
        0.9999701380729675,
        1.0
      ],
      "min": [
        -1.0,
        -0.9999969601631165,
        -0.9999766945838928,
        -1.0
      ],
      "type": "VEC4"
    },
    {
      "bufferView": 1,
      "byteOffset": 27261312,
      "componentType": 5126,
      "count": 65532,
      "max": [
        0.9638671875,
        0.98291015625
      ],
      "min": [
        0.013427734375,
        0.00341796875
      ],
      "type": "VEC2"
    },
    {
      "bufferView": 1,
      "byteOffset": 27785568,
      "componentType": 5126,
      "count": 65532,
      "max": [
        0.9638671875,
        0.98291015625
      ],
      "min": [
        0.013427734375,
        0.00341796875
      ],
      "type": "VEC2"
    },
    {
      "bufferView": 1,
      "byteOffset": 28309824,
      "componentType": 5126,
      "count": 65532,
      "max": [
        0.9638671875,
        0.98291015625
      ],
      "min": [
        0.013427734375,
        0.00341796875
      ],
      "type": "VEC2"
    },
    {
      "bufferView": 1,
      "byteOffset": 28834080,
      "componentType": 5126,
      "count": 65532,
      "max": [
        0.9638671875,
        0.98291015625
      ],
      "min": [
        0.013427734375,
        0.00341796875
      ],
      "type": "VEC2"
    },
    {
      "bufferView": 0,
      "byteOffset": 16784940,
      "componentType": 5125,
      "count": 350817,
      "type": "SCALAR"
    },
    {
      "bufferView": 2,
      "byteOffset": 22018752,
      "componentType": 5126,
      "count": 65532,
      "max": [
        0.247833251953125,
        0.393829345703125,
        0.45965576171875
      ],
      "min": [
        -0.28643798828125,
        -0.42083740234375,
        0.021612167358398438
      ],
      "type": "VEC3"
    },
    {
      "bufferView": 2,
      "byteOffset": 22805136,
      "componentType": 5126,
      "count": 65532,
      "max": [
        1.0,
        0.9999375939369202,
        0.9999696016311646
      ],
      "min": [
        -1.0,
        -1.0,
        -0.9992250800132751
      ],
      "type": "VEC3"
    },
    {
      "bufferView": 3,
      "byteOffset": 14679168,
      "componentType": 5126,
      "count": 65532,
      "max": [
        0.9999993443489075,
        0.999993085861206,
        1.0,
        1.0
      ],
      "min": [
        -0.99993497133255,
        -1.0,
        -1.0,
        -1.0
      ],
      "type": "VEC4"
    },
    {
      "bufferView": 1,
      "byteOffset": 29358336,
      "componentType": 5126,
      "count": 65532,
      "max": [
        0.998779296875,
        0.999755859375
      ],
      "min": [
        0.006103515625,
        0.001220703125
      ],
      "type": "VEC2"
    },
    {
      "bufferView": 1,
      "byteOffset": 29882592,
      "componentType": 5126,
      "count": 65532,
      "max": [
        0.998779296875,
        0.999755859375
      ],
      "min": [
        0.006103515625,
        0.001220703125
      ],
      "type": "VEC2"
    },
    {
      "bufferView": 1,
      "byteOffset": 30406848,
      "componentType": 5126,
      "count": 65532,
      "max": [
        0.998779296875,
        0.999755859375
      ],
      "min": [
        0.006103515625,
        0.001220703125
      ],
      "type": "VEC2"
    },
    {
      "bufferView": 1,
      "byteOffset": 30931104,
      "componentType": 5126,
      "count": 65532,
      "max": [
        0.998779296875,
        0.999755859375
      ],
      "min": [
        0.006103515625,
        0.001220703125
      ],
      "type": "VEC2"
    },
    {
      "bufferView": 0,
      "byteOffset": 18188208,
      "componentType": 5125,
      "count": 319704,
      "type": "SCALAR"
    },
    {
      "bufferView": 2,
      "byteOffset": 23591520,
      "componentType": 5126,
      "count": 65532,
      "max": [
        0.259002685546875,
        0.40142822265625,
        0.14752197265625
      ],
      "min": [
        -0.26580810546875,
        -0.42047119140625,
        -0.0387725830078125
      ],
      "type": "VEC3"
    },
    {
      "bufferView": 2,
      "byteOffset": 24377904,
      "componentType": 5126,
      "count": 65532,
      "max": [
        1.0,
        0.9999688863754272,
        0.9999688863754272
      ],
      "min": [
        -0.9999688863754272,
        -1.0,
        -0.9995982050895691
      ],
      "type": "VEC3"
    },
    {
      "bufferView": 3,
      "byteOffset": 15727680,
      "componentType": 5126,
      "count": 65532,
      "max": [
        0.9999948143959045,
        1.0,
        1.0,
        1.0
      ],
      "min": [
        -0.9999226927757263,
        -0.9999672770500183,
        -0.9998298287391663,
        -1.0
      ],
      "type": "VEC4"
    },
    {
      "bufferView": 1,
      "byteOffset": 31455360,
      "componentType": 5126,
      "count": 65532,
      "max": [
        0.9931640625,
        0.998779296875
      ],
      "min": [
        0.000244140625,
        0.005126953125
      ],
      "type": "VEC2"
    },
    {
      "bufferView": 1,
      "byteOffset": 31979616,
      "componentType": 5126,
      "count": 65532,
      "max": [
        0.9931640625,
        0.998779296875
      ],
      "min": [
        0.000244140625,
        0.005126953125
      ],
      "type": "VEC2"
    },
    {
      "bufferView": 1,
      "byteOffset": 32503872,
      "componentType": 5126,
      "count": 65532,
      "max": [
        0.9931640625,
        0.998779296875
      ],
      "min": [
        0.000244140625,
        0.005126953125
      ],
      "type": "VEC2"
    },
    {
      "bufferView": 1,
      "byteOffset": 33028128,
      "componentType": 5126,
      "count": 65532,
      "max": [
        0.9931640625,
        0.998779296875
      ],
      "min": [
        0.000244140625,
        0.005126953125
      ],
      "type": "VEC2"
    },
    {
      "bufferView": 0,
      "byteOffset": 19467024,
      "componentType": 5125,
      "count": 337665,
      "type": "SCALAR"
    },
    {
      "bufferView": 2,
      "byteOffset": 25164288,
      "componentType": 5126,
      "count": 65532,
      "max": [
        0.257080078125,
        0.42059326171875,
        0.127349853515625
      ],
      "min": [
        -0.2677001953125,
        -0.419525146484375,
        -0.082122802734375
      ],
      "type": "VEC3"
    },
    {
      "bufferView": 2,
      "byteOffset": 25950672,
      "componentType": 5126,
      "count": 65532,
      "max": [
        1.0,
        1.0,
        0.9999375939369202
      ],
      "min": [
        -0.9999688863754272,
        -1.0,
        -0.999845564365387
      ],
      "type": "VEC3"
    },
    {
      "bufferView": 3,
      "byteOffset": 16776192,
      "componentType": 5126,
      "count": 65532,
      "max": [
        0.9999680519104004,
        0.9999688863754272,
        0.9999681115150452,
        1.0
      ],
      "min": [
        -0.9998804926872253,
        -0.9999961256980896,
        -0.999998927116394,
        -1.0
      ],
      "type": "VEC4"
    },
    {
      "bufferView": 1,
      "byteOffset": 33552384,
      "componentType": 5126,
      "count": 65532,
      "max": [
        0.997314453125,
        0.988037109375
      ],
      "min": [
        0.0,
        0.003173828125
      ],
      "type": "VEC2"
    },
    {
      "bufferView": 1,
      "byteOffset": 34076640,
      "componentType": 5126,
      "count": 65532,
      "max": [
        0.997314453125,
        0.988037109375
      ],
      "min": [
        0.0,
        0.003173828125
      ],
      "type": "VEC2"
    },
    {
      "bufferView": 1,
      "byteOffset": 34600896,
      "componentType": 5126,
      "count": 65532,
      "max": [
        0.997314453125,
        0.988037109375
      ],
      "min": [
        0.0,
        0.003173828125
      ],
      "type": "VEC2"
    },
    {
      "bufferView": 1,
      "byteOffset": 35125152,
      "componentType": 5126,
      "count": 65532,
      "max": [
        0.997314453125,
        0.988037109375
      ],
      "min": [
        0.0,
        0.003173828125
      ],
      "type": "VEC2"
    },
    {
      "bufferView": 0,
      "byteOffset": 20817684,
      "componentType": 5125,
      "count": 330516,
      "type": "SCALAR"
    },
    {
      "bufferView": 2,
      "byteOffset": 26737056,
      "componentType": 5126,
      "count": 65532,
      "max": [
        0.2864990234375,
        0.418182373046875,
        0.0859375
      ],
      "min": [
        -0.26104736328125,
        -0.418212890625,
        -0.122344970703125
      ],
      "type": "VEC3"
    },
    {
      "bufferView": 2,
      "byteOffset": 27523440,
      "componentType": 5126,
      "count": 65532,
      "max": [
        1.0,
        0.9999688863754272,
        0.9999688863754272
      ],
      "min": [
        -0.9999375939369202,
        -1.0,
        -0.9999688863754272
      ],
      "type": "VEC3"
    },
    {
      "bufferView": 3,
      "byteOffset": 17824704,
      "componentType": 5126,
      "count": 65532,
      "max": [
        0.9999678730964661,
        1.0,
        0.9999977350234985,
        1.0
      ],
      "min": [
        -0.9997701048851013,
        -0.9999642372131348,
        -0.9999766945838928,
        -1.0
      ],
      "type": "VEC4"
    },
    {
      "bufferView": 1,
      "byteOffset": 35649408,
      "componentType": 5126,
      "count": 65532,
      "max": [
        1.0,
        0.9990234375
      ],
      "min": [
        0.0009765625,
        0.000244140625
      ],
      "type": "VEC2"
    },
    {
      "bufferView": 1,
      "byteOffset": 36173664,
      "componentType": 5126,
      "count": 65532,
      "max": [
        1.0,
        0.9990234375
      ],
      "min": [
        0.0009765625,
        0.000244140625
      ],
      "type": "VEC2"
    },
    {
      "bufferView": 1,
      "byteOffset": 36697920,
      "componentType": 5126,
      "count": 65532,
      "max": [
        1.0,
        0.9990234375
      ],
      "min": [
        0.0009765625,
        0.000244140625
      ],
      "type": "VEC2"
    },
    {
      "bufferView": 1,
      "byteOffset": 37222176,
      "componentType": 5126,
      "count": 65532,
      "max": [
        1.0,
        0.9990234375
      ],
      "min": [
        0.0009765625,
        0.000244140625
      ],
      "type": "VEC2"
    },
    {
      "bufferView": 0,
      "byteOffset": 22139748,
      "componentType": 5125,
      "count": 323184,
      "type": "SCALAR"
    },
    {
      "bufferView": 2,
      "byteOffset": 28309824,
      "componentType": 5126,
      "count": 27973,
      "max": [
        0.28662109375,
        0.401092529296875,
        0.042194366455078125
      ],
      "min": [
        -0.255340576171875,
        -0.418212890625,
        -0.1211090087890625
      ],
      "type": "VEC3"
    },
    {
      "bufferView": 2,
      "byteOffset": 28645500,
      "componentType": 5126,
      "count": 27973,
      "max": [
        0.9999688863754272,
        0.9997519850730896,
        0.999876856803894
      ],
      "min": [
        -1.0,
        -1.0,
        -0.9999688863754272
      ],
      "type": "VEC3"
    },
    {
      "bufferView": 3,
      "byteOffset": 18873216,
      "componentType": 5126,
      "count": 27973,
      "max": [
        0.9998720288276672,
        0.9999063611030579,
        1.0,
        1.0
      ],
      "min": [
        -0.9999625086784363,
        -0.9998732209205627,
        -0.9999909996986389,
        -1.0
      ],
      "type": "VEC4"
    },
    {
      "bufferView": 1,
      "byteOffset": 37746432,
      "componentType": 5126,
      "count": 27973,
      "max": [
        0.989013671875,
        0.997802734375
      ],
      "min": [
        0.00439453125,
        0.0029296875
      ],
      "type": "VEC2"
    },
    {
      "bufferView": 1,
      "byteOffset": 37970216,
      "componentType": 5126,
      "count": 27973,
      "max": [
        0.989013671875,
        0.997802734375
      ],
      "min": [
        0.00439453125,
        0.0029296875
      ],
      "type": "VEC2"
    },
    {
      "bufferView": 1,
      "byteOffset": 38194000,
      "componentType": 5126,
      "count": 27973,
      "max": [
        0.989013671875,
        0.997802734375
      ],
      "min": [
        0.00439453125,
        0.0029296875
      ],
      "type": "VEC2"
    },
    {
      "bufferView": 1,
      "byteOffset": 38417784,
      "componentType": 5126,
      "count": 27973,
      "max": [
        0.989013671875,
        0.997802734375
      ],
      "min": [
        0.00439453125,
        0.0029296875
      ],
      "type": "VEC2"
    },
    {
      "bufferView": 0,
      "byteOffset": 23432484,
      "componentType": 5125,
      "count": 118743,
      "type": "SCALAR"
    }
  ],
  "asset": {
    "extras": {
      "author": "Roberto Domínguez (https://sketchfab.com/vmmaniac)",
      "license": "CC-BY-4.0 (http://creativecommons.org/licenses/by/4.0/)",
      "source": "https://sketchfab.com/3d-models/night-king-game-of-thrones-ia-8cffcf6713eb4484bdc1e27b15c4980c",
      "title": "Night King - Game of Thrones - IA"
    },
    "generator": "Sketchfab-17.17.0",
    "version": "2.0"
  },
  "bufferViews": [
    {
      "buffer": 0,
      "byteLength": 23907456,
      "name": "floatBufferViews",
      "target": 34963
    },
    {
      "buffer": 0,
      "byteLength": 38641568,
      "byteOffset": 23907456,
      "byteStride": 8,
      "name": "floatBufferViews",
      "target": 34962
    },
    {
      "buffer": 0,
      "byteLength": 28981176,
      "byteOffset": 62549024,
      "byteStride": 12,
      "name": "floatBufferViews",
      "target": 34962
    },
    {
      "buffer": 0,
      "byteLength": 19320784,
      "byteOffset": 91530200,
      "byteStride": 16,
      "name": "floatBufferViews",
      "target": 34962
    }
  ],
  "buffers": [
    {
      "byteLength": 110850984,
      "uri": "scene.bin"
    }
  ],
  "extensionsUsed": [
    "KHR_materials_specular"
  ],
  "images": [
    {
      "uri": "textures/tripo_material_d1b95ae5-836a-488a-a104-023c2cda539c_baseColor.jpeg"
    },
    {
      "uri": "textures/tripo_material_d1b95ae5-836a-488a-a104-023c2cda539c_metallicRoughness.png"
    },
    {
      "uri": "textures/tripo_material_d1b95ae5-836a-488a-a104-023c2cda539c_normal.jpeg"
    }
  ],
  "materials": [
    {
      "extensions": {
        "KHR_materials_specular": {
          "specularColorFactor": [
            1.0,
            1.0,
            1.0
          ],
          "specularFactor": 0.3074238624774461
        }
      },
      "name": "tripo_material_d1b95ae5-836a-488a-a104-023c2cda539c",
      "normalTexture": {
        "index": 2,
        "texCoord": 2
      },
      "pbrMetallicRoughness": {
        "baseColorTexture": {
          "index": 0
        },
        "metallicRoughnessTexture": {
          "index": 1,
          "texCoord": 1
        }
      }
    }
  ],
  "meshes": [
    {
      "name": "Object_0",
      "primitives": [
        {
          "attributes": {
            "NORMAL": 1,
            "POSITION": 0,
            "TANGENT": 2,
            "TEXCOORD_0": 3,
            "TEXCOORD_1": 4,
            "TEXCOORD_2": 5,
            "TEXCOORD_3": 6
          },
          "indices": 7,
          "material": 0,
          "mode": 4
        }
      ]
    },
    {
      "name": "Object_1",
      "primitives": [
        {
          "attributes": {
            "NORMAL": 9,
            "POSITION": 8,
            "TANGENT": 10,
            "TEXCOORD_0": 11,
            "TEXCOORD_1": 12,
            "TEXCOORD_2": 13,
            "TEXCOORD_3": 14
          },
          "indices": 15,
          "material": 0,
          "mode": 4
        }
      ]
    },
    {
      "name": "Object_2",
      "primitives": [
        {
          "attributes": {
            "NORMAL": 17,
            "POSITION": 16,
            "TANGENT": 18,
            "TEXCOORD_0": 19,
            "TEXCOORD_1": 20,
            "TEXCOORD_2": 21,
            "TEXCOORD_3": 22
          },
          "indices": 23,
          "material": 0,
          "mode": 4
        }
      ]
    },
    {
      "name": "Object_3",
      "primitives": [
        {
          "attributes": {
            "NORMAL": 25,
            "POSITION": 24,
            "TANGENT": 26,
            "TEXCOORD_0": 27,
            "TEXCOORD_1": 28,
            "TEXCOORD_2": 29,
            "TEXCOORD_3": 30
          },
          "indices": 31,
          "material": 0,
          "mode": 4
        }
      ]
    },
    {
      "name": "Object_4",
      "primitives": [
        {
          "attributes": {
            "NORMAL": 33,
            "POSITION": 32,
            "TANGENT": 34,
            "TEXCOORD_0": 35,
            "TEXCOORD_1": 36,
            "TEXCOORD_2": 37,
            "TEXCOORD_3": 38
          },
          "indices": 39,
          "material": 0,
          "mode": 4
        }
      ]
    },
    {
      "name": "Object_5",
      "primitives": [
        {
          "attributes": {
            "NORMAL": 41,
            "POSITION": 40,
            "TANGENT": 42,
            "TEXCOORD_0": 43,
            "TEXCOORD_1": 44,
            "TEXCOORD_2": 45,
            "TEXCOORD_3": 46
          },
          "indices": 47,
          "material": 0,
          "mode": 4
        }
      ]
    },
    {
      "name": "Object_6",
      "primitives": [
        {
          "attributes": {
            "NORMAL": 49,
            "POSITION": 48,
            "TANGENT": 50,
            "TEXCOORD_0": 51,
            "TEXCOORD_1": 52,
            "TEXCOORD_2": 53,
            "TEXCOORD_3": 54
          },
          "indices": 55,
          "material": 0,
          "mode": 4
        }
      ]
    },
    {
      "name": "Object_7",
      "primitives": [
        {
          "attributes": {
            "NORMAL": 57,
            "POSITION": 56,
            "TANGENT": 58,
            "TEXCOORD_0": 59,
            "TEXCOORD_1": 60,
            "TEXCOORD_2": 61,
            "TEXCOORD_3": 62
          },
          "indices": 63,
          "material": 0,
          "mode": 4
        }
      ]
    },
    {
      "name": "Object_8",
      "primitives": [
        {
          "attributes": {
            "NORMAL": 65,
            "POSITION": 64,
            "TANGENT": 66,
            "TEXCOORD_0": 67,
            "TEXCOORD_1": 68,
            "TEXCOORD_2": 69,
            "TEXCOORD_3": 70
          },
          "indices": 71,
          "material": 0,
          "mode": 4
        }
      ]
    },
    {
      "name": "Object_9",
      "primitives": [
        {
          "attributes": {
            "NORMAL": 73,
            "POSITION": 72,
            "TANGENT": 74,
            "TEXCOORD_0": 75,
            "TEXCOORD_1": 76,
            "TEXCOORD_2": 77,
            "TEXCOORD_3": 78
          },
          "indices": 79,
          "material": 0,
          "mode": 4
        }
      ]
    },
    {
      "name": "Object_10",
      "primitives": [
        {
          "attributes": {
            "NORMAL": 81,
            "POSITION": 80,
            "TANGENT": 82,
            "TEXCOORD_0": 83,
            "TEXCOORD_1": 84,
            "TEXCOORD_2": 85,
            "TEXCOORD_3": 86
          },
          "indices": 87,
          "material": 0,
          "mode": 4
        }
      ]
    },
    {
      "name": "Object_11",
      "primitives": [
        {
          "attributes": {
            "NORMAL": 89,
            "POSITION": 88,
            "TANGENT": 90,
            "TEXCOORD_0": 91,
            "TEXCOORD_1": 92,
            "TEXCOORD_2": 93,
            "TEXCOORD_3": 94
          },
          "indices": 95,
          "material": 0,
          "mode": 4
        }
      ]
    },
    {
      "name": "Object_12",
      "primitives": [
        {
          "attributes": {
            "NORMAL": 97,
            "POSITION": 96,
            "TANGENT": 98,
            "TEXCOORD_0": 99,
            "TEXCOORD_1": 100,
            "TEXCOORD_2": 101,
            "TEXCOORD_3": 102
          },
          "indices": 103,
          "material": 0,
          "mode": 4
        }
      ]
    },
    {
      "name": "Object_13",
      "primitives": [
        {
          "attributes": {
            "NORMAL": 105,
            "POSITION": 104,
            "TANGENT": 106,
            "TEXCOORD_0": 107,
            "TEXCOORD_1": 108,
            "TEXCOORD_2": 109,
            "TEXCOORD_3": 110
          },
          "indices": 111,
          "material": 0,
          "mode": 4
        }
      ]
    },
    {
      "name": "Object_14",
      "primitives": [
        {
          "attributes": {
            "NORMAL": 113,
            "POSITION": 112,
            "TANGENT": 114,
            "TEXCOORD_0": 115,
            "TEXCOORD_1": 116,
            "TEXCOORD_2": 117,
            "TEXCOORD_3": 118
          },
          "indices": 119,
          "material": 0,
          "mode": 4
        }
      ]
    },
    {
      "name": "Object_15",
      "primitives": [
        {
          "attributes": {
            "NORMAL": 121,
            "POSITION": 120,
            "TANGENT": 122,
            "TEXCOORD_0": 123,
            "TEXCOORD_1": 124,
            "TEXCOORD_2": 125,
            "TEXCOORD_3": 126
          },
          "indices": 127,
          "material": 0,
          "mode": 4
        }
      ]
    },
    {
      "name": "Object_16",
      "primitives": [
        {
          "attributes": {
            "NORMAL": 129,
            "POSITION": 128,
            "TANGENT": 130,
            "TEXCOORD_0": 131,
            "TEXCOORD_1": 132,
            "TEXCOORD_2": 133,
            "TEXCOORD_3": 134
          },
          "indices": 135,
          "material": 0,
          "mode": 4
        }
      ]
    },
    {
      "name": "Object_17",
      "primitives": [
        {
          "attributes": {
            "NORMAL": 137,
            "POSITION": 136,
            "TANGENT": 138,
            "TEXCOORD_0": 139,
            "TEXCOORD_1": 140,
            "TEXCOORD_2": 141,
            "TEXCOORD_3": 142
          },
          "indices": 143,
          "material": 0,
          "mode": 4
        }
      ]
    },
    {
      "name": "Object_18",
      "primitives": [
        {
          "attributes": {
            "NORMAL": 145,
            "POSITION": 144,
            "TANGENT": 146,
            "TEXCOORD_0": 147,
            "TEXCOORD_1": 148,
            "TEXCOORD_2": 149,
            "TEXCOORD_3": 150
          },
          "indices": 151,
          "material": 0,
          "mode": 4
        }
      ]
    }
  ],
  "nodes": [
    {
      "children": [
        1
      ],
      "matrix": [
        1.0,
        0.0,
        0.0,
        0.0,
        0.0,
        2.220446049250313e-16,
        -1.0,
        0.0,
        0.0,
        1.0,
        2.220446049250313e-16,
        0.0,
        0.0,
        0.0,
        0.0,
        1.0
      ],
      "name": "Sketchfab_model"
    },
    {
      "children": [
        2
      ],
      "name": "root"
    },
    {
      "children": [
        3
      ],
      "matrix": [
        1.0,
        0.0,
        0.0,
        0.0,
        0.0,
        2.220446049250313e-16,
        1.0,
        0.0,
        0.0,
        -1.0,
        2.220446049250313e-16,
        0.0,
        0.0,
        0.0,
        0.0,
        1.0
      ],
      "name": "GLTF_SceneRootNode"
    },
    {
      "children": [
        4
      ],
      "name": "1baaf12a-3dba-4249-97cb-df1007c853e9_1"
    },
    {
      "children": [
        5,
        6,
        7,
        8,
        9,
        10,
        11,
        12,
        13,
        14,
        15,
        16,
        17,
        18,
        19,
        20,
        21,
        22,
        23
      ],
      "matrix": [
        9.113317206180579e-07,
        0.0,
        2.7028465270994557,
        0.0,
        -0.0,
        2.7028467655181885,
        0.0,
        0.0,
        -2.7028465270994557,
        0.0,
        9.113317206180579e-07,
        0.0,
        0.0,
        1.1382043361663818,
        0.0,
        1.0
      ],
      "name": "tripo_node_d1b95ae5-836a-488a-a104-023c2cda539c_0"
    },
    {
      "mesh": 0,
      "name": "Object_5"
    },
    {
      "mesh": 1,
      "name": "Object_6"
    },
    {
      "mesh": 2,
      "name": "Object_7"
    },
    {
      "mesh": 3,
      "name": "Object_8"
    },
    {
      "mesh": 4,
      "name": "Object_9"
    },
    {
      "mesh": 5,
      "name": "Object_10"
    },
    {
      "mesh": 6,
      "name": "Object_11"
    },
    {
      "mesh": 7,
      "name": "Object_12"
    },
    {
      "mesh": 8,
      "name": "Object_13"
    },
    {
      "mesh": 9,
      "name": "Object_14"
    },
    {
      "mesh": 10,
      "name": "Object_15"
    },
    {
      "mesh": 11,
      "name": "Object_16"
    },
    {
      "mesh": 12,
      "name": "Object_17"
    },
    {
      "mesh": 13,
      "name": "Object_18"
    },
    {
      "mesh": 14,
      "name": "Object_19"
    },
    {
      "mesh": 15,
      "name": "Object_20"
    },
    {
      "mesh": 16,
      "name": "Object_21"
    },
    {
      "mesh": 17,
      "name": "Object_22"
    },
    {
      "mesh": 18,
      "name": "Object_23"
    }
  ],
  "samplers": [
    {
      "magFilter": 9729,
      "minFilter": 9987,
      "wrapS": 10497,
      "wrapT": 10497
    }
  ],
  "scene": 0,
  "scenes": [
    {
      "name": "Sketchfab_Scene",
      "nodes": [
        0
      ]
    }
  ],
  "textures": [
    {
      "sampler": 0,
      "source": 0
    },
    {
      "sampler": 0,
      "source": 1
    },
    {
      "sampler": 0,
      "source": 2
    }
  ]
}
