{
  "accessors": [
    {
      "bufferView": 2,
      "componentType": 5126,
      "count": 4446,
      "max": [
        159.4718475341797,
        125.369384765625,
        424.0182800292969
      ],
      "min": [
        -159.4718475341797,
        -132.48426818847656,
        82.1309585571289
      ],
      "type": "VEC3"
    },
    {
      "bufferView": 2,
      "byteOffset": 53352,
      "componentType": 5126,
      "count": 4446,
      "max": [
        0.9991366267204285,
        0.9985991716384888,
        0.9968382120132446
      ],
      "min": [
        -0.9982312917709351,
        -0.9975780844688416,
        -0.995998203754425
      ],
      "type": "VEC3"
    },
    {
      "bufferView": 1,
      "componentType": 5126,
      "count": 4446,
      "max": [
        0.9980400204658508,
        0.8948283791542053
      ],
      "min": [
        0.0019499999471008778,
        0.0019500255584716797
      ],
      "type": "VEC2"
    },
    {
      "bufferView": 0,
      "componentType": 5125,
      "count": 4446,
      "type": "SCALAR"
    }
  ],
  "asset": {
    "extras": {
      "author": "caplazavrmem (https://sketchfab.com/Heronzavr)",
      "license": "CC-BY-4.0 (http://creativecommons.org/licenses/by/4.0/)",
      "source": "https://sketchfab.com/3d-models/0593124b00954918addae296f0f174a7",
      "title": "Гоблин"
    },
    "generator": "Sketchfab-16.41.0",
    "version": "2.0"
  },
  "bufferViews": [
    {
      "buffer": 0,
      "byteLength": 17784,
      "name": "floatBufferViews",
      "target": 34963
    },
    {
      "buffer": 0,
      "byteLength": 35568,
      "byteOffset": 17784,
      "byteStride": 8,
      "name": "floatBufferViews",
      "target": 34962
    },
    {
      "buffer": 0,
      "byteLength": 106704,
      "byteOffset": 53352,
      "byteStride": 12,
      "name": "floatBufferViews",
      "target": 34962
    }
  ],
  "buffers": [
    {
      "byteLength": 160056,
      "uri": "scene.bin"
    }
  ],
  "images": [
    {
      "uri": "textures/MDS0_baseColor.png"
    }
  ],
  "materials": [
    {
      "doubleSided": true,
      "name": "MDS0",
      "pbrMetallicRoughness": {
        "baseColorTexture": {
          "index": 0
        },
        "metallicFactor": 0.0,
        "roughnessFactor": 0.6
      }
    }
  ],
  "meshes": [
    {
      "name": "Object_0",
      "primitives": [
        {
          "attributes": {
            "NORMAL": 1,
            "POSITION": 0,
            "TEXCOORD_0": 2
          },
          "indices": 3,
          "material": 0,
          "mode": 4
        }
      ]
    }
  ],
  "nodes": [
    {
      "children": [
        1
      ],
      "matrix": [
        1.0,
        0.0,
        0.0,
        0.0,
        0.0,
        2.220446049250313e-16,
        -1.0,
        0.0,
        0.0,
        1.0,
        2.220446049250313e-16,
        0.0,
        0.0,
        0.0,
        0.0,
        1.0
      ],
      "name": "Sketchfab_model"
    },
    {
      "children": [
        2
      ],
      "name": "Project_1709212406063_0926_0841.3ds"
    },
    {
      "mesh": 0,
      "name": "Object_2"
    }
  ],
  "samplers": [
    {
      "magFilter": 9729,
      "minFilter": 9987,
      "wrapS": 33071,
      "wrapT": 33071
    }
  ],
  "scene": 0,
  "scenes": [
    {
      "name": "Sketchfab_Scene",
      "nodes": [
        0
      ]
    }
  ],
  "textures": [
    {
      "sampler": 0,
      "source": 0
    }
  ]
}
